<svg fill="#ffaa45" id="Capa_1" enable-background="new 0 0 512 512" height="512" viewBox="0 0 512 512" width="512" xmlns="http://www.w3.org/2000/svg"><g><path d="m436.4 196.022c9.332-18.337 14.6-39.075 14.6-61.022 0-74.439-60.561-135-135-135s-135 60.561-135 135c0 11.763 1.516 23.178 4.357 34.064-14.721 5.917-28.586 13.098-41.419 21.483-11.544-6.93-24.47-10.547-37.938-10.547h-30c-4.821 0-9.35 2.318-12.169 6.229-2.819 3.912-3.586 8.94-2.062 13.514l16.887 50.659c-15.771 12.697-34.282 19.598-52.954 19.598 0 0-10.701-.002-10.702-.002-8.278 0-15 6.716-15 15v91.002c0 3.972 1.575 7.781 4.38 10.593l.877.878c38.397 38.471 87.589 66.404 139.404 79.319l6.63 33.151c1.402 7.012 7.559 12.059 14.709 12.059h60c8.284 0 15-6.716 15-15v-16.118c57.451 3.637 92.998-1.452 120-9.196v25.314c0 8.284 6.716 15 15 15h60c6.685 0 12.562-4.423 14.413-10.845 8.878-30.799 22.304-61.576 41.044-94.091 13.247-22.986 20.543-50.354 20.543-77.064 0-54.451-30.636-101.724-75.6-133.978zm-120.4-166.022c57.897 0 105 47.103 105 105s-47.103 105-105 105-105-47.103-105-105 47.103-105 105-105zm149.465 362.083c-17.789 30.865-31.122 60.393-40.578 89.917h-33.887v-31.093c0-10.454-10.457-17.714-20.253-14.05-28.499 10.655-65.604 19.594-143.465 12.917-8.746-.754-16.282 6.152-16.282 14.945v17.281h-32.703l-6.117-30.589c-1.176-5.877-5.8-10.504-11.663-11.746 0 0-.252-.055-.309-.067-48.026-10.242-94.078-34.983-130.208-69.867v-69.818c27.811-1.125 54.81-13.126 76.452-34.081 4.145-4.013 5.621-10.047 3.797-15.52l-13.437-40.312h9.188c12.952 0 22.563 5.656 28.344 10.4 5.271 4.325 12.795 4.551 18.315.552 13.141-9.52 27.724-17.524 43.477-23.891 22.509 43.295 67.787 72.939 119.864 72.939 41.748 0 79.128-19.051 103.91-48.912 39.629 28.66 62.09 67.745 62.09 108.912 0 21.534-5.872 43.582-16.535 62.083z"/><circle cx="136" cy="315" r="15"/><path d="m344.92 127.893c-8.007-4.273-17.246-5.987-26.181-7.645-6.692-1.242-13.613-2.525-17.527-4.614-1.996-1.066-1.996-1.342-1.996-3.138 0-1.063 1.73-3.003 5.038-4.657 8.19-4.094 19.74-3.759 25.749.748 6.629 4.971 16.029 3.627 21-3s3.628-16.029-3-21c-4.933-3.7-10.755-6.344-17-7.917v-3.673c0-8.284-6.716-15-15-15s-15 6.716-15 15v4.123c-3.494.969-6.908 2.258-10.165 3.887-13.741 6.87-21.622 18.348-21.622 31.49 0 13.127 6.18 23.364 17.871 29.604 8.006 4.273 17.245 5.987 26.18 7.645 6.693 1.242 13.613 2.525 17.527 4.614 1.996 1.065 1.996 1.342 1.996 3.137 0 1.028-1.775 3.007-5.064 4.652-8.183 4.092-19.723 3.758-25.723-.742-6.627-4.971-16.029-3.626-21 3-4.971 6.628-3.627 16.03 3 21 4.933 3.7 10.756 6.342 17 7.914v3.676c0 8.284 6.716 15 15 15s15-6.716 15-15v-4.145c3.485-.968 6.891-2.246 10.14-3.871 13.757-6.879 21.647-18.354 21.647-31.485 0-13.126-6.179-23.363-17.87-29.603z"/></g></svg>