<?xml version="1.0" encoding="iso-8859-1"?>
<!-- Generator: Adobe Illustrator 19.0.0, SVG Export Plug-In . SVG Version: 6.00 Build 0)  -->
<svg fill="#ffaa45" version="1.1" id="Capa_1" xmlns="http://www.w3.org/2000/svg" xmlns:xlink="http://www.w3.org/1999/xlink" x="0px" y="0px"
	 viewBox="0 0 512 512" style="enable-background:new 0 0 512 512;" xml:space="preserve">
<g>
	<g>
		<path d="M497,51H15C6.716,51,0,57.716,0,66v380c0,8.284,6.716,15,15,15h482c8.284,0,15-6.716,15-15V66
			C512,57.716,505.284,51,497,51z M482,431H30V171h452V431z M482,141H30V81h452V141z"/>
	</g>
</g>
<g>
	<g>
		<path d="M381.758,96h-52c-8.284,0-15,6.716-15,15s6.716,15,15,15h52c8.284,0,15-6.716,15-15S390.042,96,381.758,96z"/>
	</g>
</g>
<g>
	<g>
		<circle cx="435.76" cy="111" r="20"/>
	</g>
</g>
<g>
	<g>
		<path d="M406.337,225.733c-5.129-6.506-14.561-7.622-21.066-2.493l-122.177,96.328l-84.076-37.823
			c-6.321-2.843-13.769-0.986-18.013,4.495l-55.423,71.555c-5.073,6.549-3.876,15.971,2.673,21.044
			c6.591,5.104,16.005,3.834,21.044-2.674l48.188-62.213l81.596,36.708c5.1,2.293,11.051,1.56,15.441-1.9l129.321-101.961
			C410.351,241.67,411.466,232.238,406.337,225.733z"/>
	</g>
</g>
<g>
</g>
<g>
</g>
<g>
</g>
<g>
</g>
<g>
</g>
<g>
</g>
<g>
</g>
<g>
</g>
<g>
</g>
<g>
</g>
<g>
</g>
<g>
</g>
<g>
</g>
<g>
</g>
<g>
</g>
</svg>
