<svg id="Layer_1" data-name="Layer 1" xmlns="http://www.w3.org/2000/svg" viewBox="0 0 1088.75 299"><defs><style>.cls-1{fill:#f78700;}.cls-2{fill:#ff981f;}.cls-3{fill:#ffaa45;}.cls-4{fill:#ffb64d;}</style></defs><title>orange_1200x300</title><path class="cls-1" d="M427,260.07a38.75,38.75,0,0,1-9.27,25.2,0,0,0,0,1,0,0,38.27,38.27,0,0,1-5.9,5.62A38.72,38.72,0,0,1,388,299h-34.5L328.25,137.37,318.54,75.3,308.1,8.57a38.5,38.5,0,0,1,9.5-5.63,38.89,38.89,0,0,1,12-2.83h54.35L384.23,2l42,250.66.24,1.41c0,.17.06.36.08.55s0,.27.05.39A38.21,38.21,0,0,1,427,260.07Z" transform="translate(-44.8)"/><path class="cls-2" d="M371.05,33.89,356.21,69.77l-28,67.6L272.65,271.8l-2.5,6.05a38.73,38.73,0,0,1-5,7.42,0,0,0,0,1,0,0,38.26,38.26,0,0,1-5.62,5.4l-.28.22a38.59,38.59,0,0,1-19.63,7.86h-57.8l-1.46-1.57,16.21-38.15,11.16-26.25,27.21-64,61.43-144.6c.16-.38.31-.75.49-1.13A38.9,38.9,0,0,1,308.1,8.57a38.5,38.5,0,0,1,9.5-5.63,38.89,38.89,0,0,1,12-2.83c.52,0,1-.07,1.55-.08s.9,0,1.34,0,.89,0,1.33,0,1,.05,1.55.08h48.58Z" transform="translate(-44.8)"/><path class="cls-3" d="M180.74,299l0-.23-.31-1.57L159.05,183.69l-10.42-55.37,0-.17L134.53,53.42a38.83,38.83,0,0,1,13.52-2.91h49.21l62.31,240.18-.28.22a38.59,38.59,0,0,1-19.63,7.86Z" transform="translate(-44.8)"/><path class="cls-4" d="M197.26,50.5l-9.56,33v0l-.11.42-8.9,30.62s0,0,0,0l-20,69.06-25.11,86.68c0,.14-.08.29-.13.43a38.64,38.64,0,0,1-7.76,14.47s0,0,0,0A38.86,38.86,0,0,1,96.05,299H44.8l12.36-40.76L62.7,240,111.54,78.86c.13-.45.27-.91.41-1.36a38.91,38.91,0,0,1,35.75-27Z" transform="translate(-44.8)"/><path class="cls-3" d="M559.91,255.13H534.65V147.36H520.9V123.78h13.75V73.55h25.26v50.23h24.7v23.58h-24.7Z" transform="translate(-44.8)"/><path class="cls-3" d="M721.56,255.13H696.3V234.64h-.56c-10.1,14.88-25.82,25-44.62,25-40.14,0-62.87-33.4-62.87-71,0-35.92,23.86-68.76,62-68.76,19.37,0,35.09,10.11,45.47,25.82h.56V123.78h25.26Zm-23.85-65.67c0-25.54-15.44-47.15-42.66-47.15-26.1,0-41.54,22.73-41.54,47.15,0,24.69,14.87,47.71,41.54,47.71C682.55,237.17,697.71,215.28,697.71,189.46Z" transform="translate(-44.8)"/><path class="cls-3" d="M877.6,255.13H852.34V234.64h-.56c-10.1,14.88-25.82,25-44.62,25-40.14,0-62.87-33.4-62.87-71,0-35.92,23.86-68.76,62-68.76,19.37,0,35.09,10.11,45.47,25.82h.56V123.78H877.6Zm-23.85-65.67c0-25.54-15.44-47.15-42.66-47.15-26.1,0-41.54,22.73-41.54,47.15,0,24.69,14.87,47.71,41.54,47.71C838.59,237.17,853.75,215.28,853.75,189.46Z" transform="translate(-44.8)"/><path class="cls-3" d="M963.2,153.81c-3.09-6.45-9.54-11.5-16.84-11.5-7,0-13.75,5.61-13.75,12.91,0,11.5,15.15,16.56,30.59,23.57s30.31,16.56,30.31,37.33c0,25-20.77,43.5-45.19,43.5-19.08,0-38.45-11-45.46-29.47l21.61-9.82c5.33,9.82,11.78,16.84,23.85,16.84,10.67,0,19.93-7.3,19.93-18.53,0-7-3.37-10.38-9.26-14.31l-24.7-13.19C919.7,183.28,909,176,909,158c0-21.33,17.4-38.17,38.73-38.17,16,0,28.91,8.7,35.93,23Z" transform="translate(-44.8)"/><path class="cls-3" d="M1045.14,173.18l49.4-49.4h33.4l-56.13,54.45,61.74,76.9h-32.84l-46.87-59.78-8.7,8.7v51.08h-25.26V11.52h25.26Z" transform="translate(-44.8)"/></svg>