<svg id="Lag_1" data-name="Lag 1" xmlns="http://www.w3.org/2000/svg" viewBox="0 0 998 780.81"><defs><style>.cls-1{fill:#f78700;}.cls-2{fill:#ff981f;}.cls-3{fill:#ffaa45;}.cls-4{fill:#ffb64d;}</style></defs><title>oange_notext</title><path class="cls-1" d="M998,775.71a101.1,101.1,0,0,1-24.21,65.79.05.05,0,0,1,0,.07,101.66,101.66,0,0,1-77.45,35.79h-90.1l-66-422.08L714.85,293.19,687.57,118.93a100.78,100.78,0,0,1,56.06-22.08H885.55l.83,5L996.16,756.39l.62,3.69c.1.46.17.95.23,1.45,0,.33.1.69.13,1A102.18,102.18,0,0,1,998,775.71Z" transform="translate(0 -96.55)"/><path class="cls-2" d="M852,185.05l-38.75,93.7-73,176.53L595,806.33l-6.52,15.8a101.54,101.54,0,0,1-13,19.37.05.05,0,0,1,0,.07,99.15,99.15,0,0,1-14.67,14.08c-.23.2-.5.39-.73.59a100.92,100.92,0,0,1-51.25,20.53H357.92l-3.8-4.11L396.42,773l29.15-68.56,71.06-167.22L657,159.65c.43-1,.83-2,1.29-3a101.51,101.51,0,0,1,85.3-59.84c1.35-.1,2.7-.2,4-.23,1.15,0,2.33-.07,3.48-.07s2.34,0,3.49.07c1.35,0,2.7.13,4.05.23H885.55Z" transform="translate(0 -96.55)"/><path class="cls-3" d="M355,877.36l-.09-.59-.79-4.11L298.35,576.24l-27.2-144.58-.1-.46L234.33,236a101.94,101.94,0,0,1,35.3-7.6h128.5L560.85,855.65c-.23.2-.5.39-.73.59a100.92,100.92,0,0,1-51.25,20.53Z" transform="translate(0 -96.55)"/><path class="cls-4" d="M398.13,228.44l-25,86.26v.06l-.29,1.09-23.23,80a0,0,0,0,1,0,.07L297.43,576.24,231.87,802.61c-.1.36-.2.76-.33,1.12a101,101,0,0,1-20.27,37.77,0,0,0,0,1,0,.06,101.57,101.57,0,0,1-77.44,35.79H0L32.27,770.93l14.48-47.7L174.29,302.49c.33-1.18.7-2.37,1.06-3.55a101.62,101.62,0,0,1,93.36-70.5Z" transform="translate(0 -96.55)"/></svg>